<svg width="100" height="100" viewBox="0 0 100 100" fill="none" xmlns="http://www.w3.org/2000/svg">
<path d="M89.5788 10.4501C80.1407 1.05119 66.5789 0 50 0C33.4211 0 19.8171 1.06421 10.3853 10.4859C0.953593 19.9076 0 33.4689 0 50.0506C0 66.6319 0.956845 80.1997 10.3886 89.6214C19.8204 99.0431 33.405 100 50 100C66.595 100 80.1699 99.0497 89.6083 89.6247C99.0464 80.1997 100 66.6319 100 50.0536C100 33.4756 99.0464 19.888 89.5788 10.4501Z" fill="#3B82F6"/>
<path d="M30.5809 23.6667C32.1238 23.7236 33.4381 24.2935 34.5238 25.3763C35.6095 26.4021 36.1809 27.6844 36.2381 29.2231V43.4989H64.0952V29.2231C64.1523 27.6274 64.7523 26.3167 65.8952 25.2909C67.0381 24.2081 68.4095 23.6667 70.0095 23.6667C71.5523 23.7236 72.8666 24.2935 73.9523 25.3763C75.0381 26.4021 75.6095 27.6844 75.6666 29.2231V71.1102C75.3238 74.5296 73.4381 76.3817 70.0095 76.6667C68.4095 76.6667 67.0095 76.1538 65.8095 75.1279C64.6666 74.0452 64.0952 72.7059 64.0952 71.1102V54.9538H36.2381V71.1102C35.8952 74.5296 34.0095 76.3817 30.5809 76.6667C28.9809 76.6667 27.5809 76.1538 26.3809 75.1279C25.2381 74.0452 24.6666 72.7059 24.6666 71.1102V29.2231C24.7238 27.6274 25.3238 26.3167 26.4666 25.2909C27.6095 24.2081 28.9809 23.6667 30.5809 23.6667Z" fill="white"/>
</svg>
